# xmcd CD database file
#
# Track frame offsets:
#	150
#	16547
#	36420
#	51934
#	66112
#	75516
#	97523
#	108398
#	122171
#	148081
#	163628
#	180160
#	193463
#	216652
#
# Disc length: 3038 seconds
#
# Revision: 4
# Processed by: cddbd v1.5.2PL0 Copyright (c) Steve Scherf et al.
# Submitted via: CDex 1.70beta2
#
DISCID=bd0bdc0e
DTITLE=Various Artist - Livin' The Blues - CD1
DYEAR=2000
DGENRE=Blues
TTITLE0=Muddy Waters - Mannish Boy
TTITLE1=Albert Collins - Too Many Dirty Dishes
TTITLE2=Bessie Smith - Careless Love Blues
TTITLE3=Johnny Winter - Low Down Gal Of Mine
TTITLE4=Canned Heat - Big Road Blues
TTITLE5=John Mayall - A Big Man
TTITLE6=Robert Johnson - From Four Till Late
TTITLE7=Lightnin' Hopkins - Mojo Hand
TTITLE8=John Lee Hooker - Drug Store Woman
TTITLE9=Albert King - Born Under A Bad Sign
TTITLE10=Johnny Winter - Kind Hearted Woman
TTITLE11=Tony Joe Whithe - You Got Me Running
TTITLE12=B.B. King - Sweet Little Angel
TTITLE13=Bye, Bye Baby Blues - Big Joe Williams
EXTD=YEAR: 2000
EXTT0=
EXTT1=
EXTT2=
EXTT3=
EXTT4=
EXTT5=
EXTT6=
EXTT7=
EXTT8=
EXTT9=
EXTT10=
EXTT11=
EXTT12=
EXTT13=
PLAYORDER=
